<?xml version="1.0" encoding="UTF-8" standalone="no"?>
<!-- Created with Inkscape (http://www.inkscape.org/) -->

<svg
   xmlns:dc="http://purl.org/dc/elements/1.1/"
   xmlns:cc="http://creativecommons.org/ns#"
   xmlns:rdf="http://www.w3.org/1999/02/22-rdf-syntax-ns#"
   xmlns:svg="http://www.w3.org/2000/svg"
   xmlns="http://www.w3.org/2000/svg"
   xmlns:inkscape="http://www.inkscape.org/namespaces/inkscape"
   version="1.1"
   width="600.00006"
   height="533.4812"
   id="svg3208">
  <defs
     id="defs3210" />
  <metadata
     id="metadata3213">
    <rdf:RDF>
      <cc:Work
         rdf:about="">
        <dc:format>image/svg+xml</dc:format>
        <dc:type
           rdf:resource="http://purl.org/dc/dcmitype/StillImage" />
        <dc:title />
      </cc:Work>
    </rdf:RDF>
  </metadata>
  <g
     transform="translate(-510.31037,-331.03141)"
     id="layer1">
    <path
       d="m 713.85991,852.97324 c -13.24237,-13.24237 -14.84693,-23.54582 -7.09008,-45.53094 6.99159,-19.81635 16.57282,-30.21975 46.99885,-51.03259 15.37837,-10.51951 42.36291,-30.01837 59.96548,-43.3307 30.71662,-23.23012 46.24631,-32.88718 138.57862,-86.17383 67.21712,-38.79226 157.99762,-74.97988 157.99762,-62.98235 0,5.72718 -21.6024,21.17322 -51.8605,37.08105 -38.8505,20.42524 -148.00006,94.34145 -180.46523,122.21143 -25.57402,21.9543 -59.52308,58.95089 -95.23194,103.78065 -32.31156,40.56494 -48.28299,46.58727 -68.89282,25.97728 z M 582.44653,816.20576 c -8.45298,-9.07328 -10.25942,-20.87627 -6.1929,-40.46499 5.2375,-25.22816 4.44304,-50.05388 -2.02527,-63.29429 -4.62779,-9.47312 -9.75636,-13.42386 -30.8275,-23.74688 -13.90181,-6.81075 -27.06754,-14.83324 -29.25718,-17.82777 -8.88347,-12.14885 -1.85438,-42.35067 16.19924,-69.60247 15.03429,-22.6943 70.08906,-84.7188 103.21529,-116.28207 34.27584,-32.65888 56.12645,-47.6048 82.96195,-56.74722 20.31794,-6.9218 32.05522,-12.39753 98.21751,-45.81973 78.12883,-39.46719 156.03835,-62.44863 156.03835,-46.0273 0,2.79086 -15.37038,11.06447 -42.01036,22.61341 -58.01571,25.15103 -67.51638,30.78852 -109.88679,65.20542 -20.43225,16.59679 -52.72358,41.95507 -71.75852,56.35162 -36.37515,27.5111 -64.18822,55.36967 -93.04461,93.19691 -37.09377,48.6251 -41.04109,58.81668 -29.87389,77.13251 3.29473,5.40382 5.94112,13.84359 5.99037,18.75463 0.11904,11.89398 5.92237,8.12016 11.5416,3.70876 8.32595,-6.53631 22.8854,-19.75439 46.97278,-42.4296 63.70864,-59.9738 148.65491,-122.48685 207.54269,-152.73336 37.96748,-19.50115 139.96581,-61.43062 168.98981,-69.46828 26.6216,-7.37234 42.0707,-8.09195 42.0707,-1.95939 0,5.34202 -7.4131,9.84589 -70.7112,42.96168 -87.20664,45.62406 -123.09569,71.60314 -191.85365,138.87721 -37.24738,36.4438 -103.39288,96.203 -150.30449,135.79298 -5.41638,4.57104 -24.86797,25.80313 -43.2257,47.1823 -18.35757,21.37917 -36.85635,41.60758 -41.10811,44.95205 -9.97667,7.84768 -20.15683,7.72767 -27.66012,-0.32613 z"
       inkscape:connector-curvature="0"
       id="path7130"
       style="fill:#000000" />
  </g>
</svg>
