<?xml version="1.0" encoding="UTF-8" standalone="no"?>
<!-- Created with Inkscape (http://www.inkscape.org/) -->

<svg
   xmlns:dc="http://purl.org/dc/elements/1.1/"
   xmlns:cc="http://creativecommons.org/ns#"
   xmlns:rdf="http://www.w3.org/1999/02/22-rdf-syntax-ns#"
   xmlns:svg="http://www.w3.org/2000/svg"
   xmlns="http://www.w3.org/2000/svg"
   xmlns:inkscape="http://www.inkscape.org/namespaces/inkscape"
   version="1.1"
   width="600"
   height="599.99982"
   id="svg3312">
  <defs
     id="defs3314" />
  <metadata
     id="metadata3317">
    <rdf:RDF>
      <cc:Work
         rdf:about="">
        <dc:format>image/svg+xml</dc:format>
        <dc:type
           rdf:resource="http://purl.org/dc/dcmitype/StillImage" />
        <dc:title />
      </cc:Work>
    </rdf:RDF>
  </metadata>
  <g
     transform="translate(-256.85709,-69.790911)"
     id="layer1">
    <path
       d="m 490.19041,610.45738 c -49.37676,-49.37676 -59.33337,-60.76918 -59.33337,-67.89063 0,-6.91516 7.19678,-15.89193 37.49999,-46.77595 35.23967,-35.91483 37.50015,-38.93386 37.50015,-50.08628 0,-15.645 -9.42515,-24.9137 -25.33418,-24.9137 -10.61435,0 -14.22855,2.72887 -49.66596,37.49999 -30.88386,30.30338 -39.86063,37.49999 -46.77579,37.49999 -7.12145,0 -18.51403,-9.95661 -67.89079,-59.33337 -44.74741,-44.74741 -59.33337,-61.13612 -59.33337,-66.6666 0,-5.53064 14.58596,-21.91919 59.33337,-66.66659 49.37676,-49.37693 60.76934,-59.33338 67.89079,-59.33338 6.91516,0 15.89193,7.19662 46.77579,37.49999 35.91499,35.23967 38.93403,37.49999 50.08644,37.49999 15.64484,0 24.9137,-9.42515 24.9137,-25.33402 0,-10.61435 -2.72903,-14.22871 -37.50015,-49.66596 -30.30321,-30.88402 -37.49999,-39.86079 -37.49999,-46.77595 0,-7.12145 9.95661,-18.51387 59.33337,-67.89063 44.74741,-44.747566 61.13612,-59.333369 66.66676,-59.333369 5.53048,0 21.91919,14.585803 66.6666,59.333369 49.37676,49.37676 59.33337,60.76918 59.33337,67.89063 0,6.91516 -7.19678,15.89193 -37.49999,46.77595 -35.23967,35.91483 -37.49999,38.93387 -37.49999,50.08628 0,15.645 9.42499,24.9137 25.33402,24.9137 10.61435,0 14.22871,-2.72903 49.66596,-37.49999 30.88386,-30.30337 39.86063,-37.49999 46.77579,-37.49999 7.12145,0 18.51403,9.95645 67.89079,59.33338 44.74741,44.7474 59.33337,61.13595 59.33337,66.66659 0,5.53048 -14.58596,21.91919 -59.33337,66.6666 -49.37676,49.37676 -60.76934,59.33337 -67.89079,59.33337 -6.91516,0 -15.89193,-7.19661 -46.77579,-37.49999 -35.91499,-35.23967 -38.93403,-37.49999 -50.08644,-37.49999 -15.64484,0 -24.91354,9.42499 -24.91354,25.33402 0,10.61435 2.72887,14.22871 37.49999,49.66596 30.30321,30.88402 37.49999,39.86079 37.49999,46.77595 0,7.12145 -9.95661,18.51387 -59.33337,67.89063 -44.74741,44.74757 -61.13612,59.33337 -66.6666,59.33337 -5.53064,0 -21.91935,-14.5858 -66.66676,-59.33337 z m 66.66676,-213.66656 103.40981,0 34.58515,34.49499 34.58516,34.49499 47.92466,-47.99498 47.92483,-47.99499 -47.92483,-47.99499 -47.92466,-47.99514 -34.58516,34.49515 -34.58515,34.49499 -103.40981,0 -103.40997,0 -34.58515,-34.49499 -34.58516,-34.49515 -47.92466,47.99514 -47.92483,47.99499 47.92483,47.99499 47.92466,47.99498 34.58516,-34.49499 34.58515,-34.49499 103.40997,0 z"
       inkscape:connector-curvature="0"
       id="path7182"
       style="fill:#000000" />
  </g>
</svg>
