<?xml version="1.0" encoding="UTF-8" standalone="no"?>
<!-- Created with Inkscape (http://www.inkscape.org/) -->

<svg
   xmlns:dc="http://purl.org/dc/elements/1.1/"
   xmlns:cc="http://creativecommons.org/ns#"
   xmlns:rdf="http://www.w3.org/1999/02/22-rdf-syntax-ns#"
   xmlns:svg="http://www.w3.org/2000/svg"
   xmlns="http://www.w3.org/2000/svg"
   xmlns:inkscape="http://www.inkscape.org/namespaces/inkscape"
   version="1.1"
   width="600"
   height="521.40387"
   id="svg3297">
  <defs
     id="defs3299" />
  <metadata
     id="metadata3302">
    <rdf:RDF>
      <cc:Work
         rdf:about="">
        <dc:format>image/svg+xml</dc:format>
        <dc:type
           rdf:resource="http://purl.org/dc/dcmitype/StillImage" />
        <dc:title />
      </cc:Work>
    </rdf:RDF>
  </metadata>
  <g
     transform="translate(-279.11842,-171.98853)"
     id="layer1">
    <path
       d="m 601.1566,690.2545 c -46.88993,-9.28142 -78.83252,-26.03505 -111.48236,-58.47137 l -24.16742,-24.00956 0.0753,16.18258 c 0.0692,14.38535 3.19172,33.68464 8.04571,49.7052 2.72044,8.97876 -4.29093,6.24265 -19.18646,-7.48758 C 411.5886,626.67336 385.8719,565.48185 382.2321,494.35426 c -1.6449,-32.14888 -1.26922,-36.64103 3.06629,-36.64103 2.71767,0 7.96716,4.24928 11.66522,9.44267 10.25981,14.40887 45.11024,43.22661 70.13031,54.03011 61.26221,26.45254 132.2507,31.67944 190.05172,15.10058 31.35572,-8.99351 62.97889,-25.63216 88.99273,-46.57035 11.16043,-8.98276 21.34384,-16.34982 22.63012,-16.37165 5.14482,-0.0861 1.7379,9.27866 -9.95822,27.37482 -14.02182,21.69447 -31.75691,39.85243 -52.05765,53.29905 -18.4411,12.2149 -61.68262,27.67717 -86.09321,30.78528 l -19.50404,2.48325 13.83382,10.13607 c 20.6406,15.12334 42.57194,20.43432 76.41322,18.50428 52.64514,-3.0025 96.39023,-22.79306 134.45849,-60.83012 16.1317,-16.11863 45.77258,-54.80636 49.1011,-64.08794 0.72415,-2.01919 2.40579,-2.65726 3.73711,-1.4177 3.10241,2.88813 -11.56547,44.33919 -25.68581,72.58757 -32.29092,64.59935 -82.0656,108.65985 -141.15521,124.9508 -24.49852,6.75451 -83.89403,8.43092 -110.70149,3.12455 z M 526.73844,437.81507 c 0.0308,-75.17089 101.46326,-74.78461 101.46326,-0.0154 0,68.32938 -101.47694,69.53204 -101.46326,0.0154 z M 758.63488,391.56045 C 651.25362,304.18232 507.1245,300.75372 408.5964,378.65829 c -16.84678,13.32041 -21.04917,15.74664 -21.04917,11.06835 0,-9.24699 22.29395,-41.12995 41.09505,-58.77066 25.21331,-23.65711 71.56031,-44.81403 109.07198,-49.79007 14.73028,-1.95402 15.71298,-2.86032 10.04184,-7.86602 -34.13609,-30.13015 -107.00865,-23.79728 -140.63413,-12.19062 -39.92436,13.78095 -78.54676,46.7545 -106.91842,89.9716 -8.45214,12.8748 -15.92096,24.94383 -16.59761,26.82022 -0.67634,1.87654 -2.31724,2.39948 -3.64641,1.16239 -3.37434,-3.14116 3.62105,-27.23095 17.09134,-58.85629 25.25202,-59.28683 63.83446,-105.32841 113.64327,-126.20404 54.21089,-22.72066 120.8903,-30.04899 173.38142,-11.49168 37.89549,13.39728 65.93943,32.06142 94.87906,62.26243 l 14.19429,14.81298 c 1.17622,-25.59265 -1.85795,-48.00727 -7.60947,-72.80845 2.04993,-2.10528 24.29469,18.40344 39.43432,36.35727 19.36308,22.96214 31.59735,46.49349 40.93949,78.74213 10.75032,37.11126 18.71779,106.1531 12.21153,105.82231 -1.28629,-0.0661 -9.47772,-7.99238 -19.4899,-16.13969 z"
       inkscape:connector-curvature="0"
       id="path7195"
       style="fill:#000000" />
  </g>
</svg>
