<?xml version="1.0" encoding="utf-8"?>
<!-- Generator: Adobe Illustrator 17.0.0, SVG Export Plug-In . SVG Version: 6.00 Build 0)  -->
<!DOCTYPE svg PUBLIC "-//W3C//DTD SVG 1.1//EN" "http://www.w3.org/Graphics/SVG/1.1/DTD/svg11.dtd">
<svg version="1.1" id="Layer_2" xmlns="http://www.w3.org/2000/svg" xmlns:xlink="http://www.w3.org/1999/xlink" x="0px" y="0px"
	 width="198px" height="300px" viewBox="0 0 198 300" enable-background="new 0 0 198 300" xml:space="preserve">
<g>
	<path fill="#FFFFFF" d="M180.583,44.328C168.128,23.162,149.956,9.8,128.034,5.686c-0.106-0.021-32.277-5.075-32.406-5.09
		C92.38,0.2,89.031,0,85.677,0C59.252,0,37.062,11.888,21.506,34.378C7.437,54.719,0,82.072,0,113.481V251.67
		c0,2.396,0.789,4.727,2.246,6.631l28.59,37.399c2.071,2.71,5.289,4.3,8.704,4.3h147.512c6.047,0,10.949-4.894,10.949-10.931
		V116.463C198,88.632,191.979,63.688,180.583,44.328z"/>
	<path fill="#666666" d="M187.051,293.624H39.539c-1.422,0-2.764-0.662-3.627-1.792L7.323,254.433
		c-0.607-0.794-0.936-1.765-0.936-2.763V113.481c0-64.063,31.864-107.104,79.29-107.104c3.098,0,6.186,0.184,9.18,0.549
		l31.864,5.003c39.473,7.406,64.893,48.43,64.893,104.534v172.606C191.613,291.585,189.571,293.624,187.051,293.624z"/>
	<path fill="#CCCCCC" d="M83.294,15.557c-40.643,1.47-67.782,40.432-67.782,97.925v136.65l19.464,25.461V114.641
		C34.976,66.115,53.516,29.832,83.294,15.557z"/>
	<path fill="#CCCCCC" d="M44.101,284.515h138.389V114.641c0-57.802-27.807-96.637-69.195-96.637
		c-41.388,0-69.193,38.835-69.193,96.637V284.515z"/>
	<path fill="#999999" d="M152.986,87.146H73.604c-2.52,0-4.563-2.039-4.563-4.555c0-2.516,2.043-4.555,4.563-4.555h79.383
		c2.52,0,4.562,2.039,4.562,4.555C157.548,85.107,155.506,87.146,152.986,87.146z"/>
	<path fill="#999999" d="M136.3,121.762H90.289c-2.52,0-4.563-2.039-4.563-4.555c0-2.516,2.043-4.555,4.563-4.555H136.3
		c2.521,0,4.563,2.039,4.563,4.555C140.862,119.723,138.82,121.762,136.3,121.762z"/>
	<path fill="#999999" d="M152.986,171.863H73.604c-2.52,0-4.563-2.039-4.563-4.555c0-2.516,2.043-4.555,4.563-4.555h79.383
		c2.52,0,4.562,2.039,4.562,4.555C157.548,169.824,155.506,171.863,152.986,171.863z"/>
	<path fill="#999999" d="M138.629,211.944H87.96c-2.52,0-4.562-2.039-4.562-4.555c0-2.516,2.042-4.555,4.562-4.555h50.669
		c2.521,0,4.563,2.039,4.563,4.555C143.191,209.905,141.149,211.944,138.629,211.944z"/>
</g>
</svg>
