<?xml version="1.0" encoding="UTF-8" standalone="no"?>
<!-- Created with Inkscape (http://www.inkscape.org/) -->

<svg
   xmlns:dc="http://purl.org/dc/elements/1.1/"
   xmlns:cc="http://creativecommons.org/ns#"
   xmlns:rdf="http://www.w3.org/1999/02/22-rdf-syntax-ns#"
   xmlns:svg="http://www.w3.org/2000/svg"
   xmlns="http://www.w3.org/2000/svg"
   xmlns:inkscape="http://www.inkscape.org/namespaces/inkscape"
   version="1.1"
   width="600"
   height="849.88568"
   id="svg3234">
  <defs
     id="defs3236" />
  <metadata
     id="metadata3239">
    <rdf:RDF>
      <cc:Work
         rdf:about="">
        <dc:format>image/svg+xml</dc:format>
        <dc:type
           rdf:resource="http://purl.org/dc/dcmitype/StillImage" />
        <dc:title />
      </cc:Work>
    </rdf:RDF>
  </metadata>
  <g
     transform="translate(-209.32562,77.669905)"
     id="layer1">
    <path
       d="m 277.30227,767.01932 c -14.98382,-4.60496 -20.64186,-12.00446 -17.72072,-23.17455 2.54286,-9.72384 25.17485,-17.24278 60.09182,-19.96423 17.63669,-1.37448 37.91459,-4.62606 45.06184,-7.22544 37.25354,-13.54849 73.6648,-41.33741 82.79446,-63.18741 2.40778,-5.76203 6.99974,-43.7987 10.86075,-89.95941 6.1682,-73.74185 6.311,-80.39439 1.83471,-85.34071 -2.67002,-2.95053 -24.65509,-15.2711 -48.8556,-27.37918 C 372.66032,431.42116 364.58431,426.03025 344.2126,405.95958 323.19716,385.25499 319.73422,380.09259 306.75918,350.12703 290.92799,313.56525 263.72307,233.30669 255.45209,198.76349 250.4907,178.04213 248.79634,175.1888 231.38891,158.24067 217.33102,144.5539 212.143,137.20262 210.57731,128.75229 c -3.7542,-20.26282 0.63506,-32.423269 17.27292,-47.854696 l 15.18709,-14.08577 -2.14895,-61.0241488 c -2.08752,-59.2802402 -1.96714,-61.2551122 4.20972,-69.1076892 3.49724,-4.445957 11.36244,-9.473279 17.47826,-11.171974 15.25642,-4.237222 478.24875,-4.237222 493.50479,0 6.11602,1.698695 14.01192,6.756348 17.54646,11.239605 6.24525,7.921151 6.36243,9.719126 4.15075,63.68249188 C 776.52651,30.972325 775.65258,58.5171 775.83626,61.640761 c 0.18274,3.123662 7.04458,11.903485 15.24605,19.510969 16.3485,15.163915 20.73304,27.4421 16.99806,47.60056 -1.56757,8.46032 -6.76369,15.81122 -20.91841,29.59218 -17.48429,17.02274 -19.21595,19.92429 -24.18224,40.52263 -8.56807,35.53582 -35.54297,115.43249 -51.06935,151.25993 -12.98144,29.95501 -16.45739,35.13531 -37.46529,55.83255 -20.3719,20.07067 -28.4479,25.46158 -67.15712,44.82881 -24.20051,12.10808 -46.18539,24.42865 -48.85541,27.37918 -4.47647,4.94632 -4.33273,11.63051 1.84149,85.74461 3.7606,45.14059 8.48368,84.69115 10.77316,90.21299 8.72218,21.03653 45.99719,49.15212 82.87508,62.51128 7.14726,2.58902 27.63596,5.93366 45.52999,7.43229 35.25983,2.95335 57.12094,10.20403 59.62405,19.77603 3.01214,11.51936 -2.67134,18.50347 -19.00533,23.35408 -22.89442,6.79911 -440.58943,6.63691 -462.76872,-0.17897 z"
       inkscape:connector-curvature="0"
       id="path7117"
       style="fill:#000000" />
  </g>
</svg>
