<?xml version="1.0" encoding="UTF-8" standalone="no"?>
<!-- Created with Inkscape (http://www.inkscape.org/) -->

<svg
   xmlns:dc="http://purl.org/dc/elements/1.1/"
   xmlns:cc="http://creativecommons.org/ns#"
   xmlns:rdf="http://www.w3.org/1999/02/22-rdf-syntax-ns#"
   xmlns:svg="http://www.w3.org/2000/svg"
   xmlns="http://www.w3.org/2000/svg"
   xmlns:sodipodi="http://sodipodi.sourceforge.net/DTD/sodipodi-0.dtd"
   xmlns:inkscape="http://www.inkscape.org/namespaces/inkscape"
   width="7.9628906mm"
   height="7.7836714mm"
   viewBox="0 0 28.214968 27.57994"
   id="svg3845"
   version="1.1"
   inkscape:version="0.91 r13725"
   sodipodi:docname="weird-star.svg">
  <defs
     id="defs3847">
    <pattern
       y="0"
       x="0"
       height="6"
       width="6"
       patternUnits="userSpaceOnUse"
       id="EMFhbasepattern" />
    <pattern
       y="0"
       x="0"
       height="6"
       width="6"
       patternUnits="userSpaceOnUse"
       id="EMFhbasepattern-0" />
    <pattern
       y="0"
       x="0"
       height="6"
       width="6"
       patternUnits="userSpaceOnUse"
       id="EMFhbasepattern-2" />
    <pattern
       y="0"
       x="0"
       height="6"
       width="6"
       patternUnits="userSpaceOnUse"
       id="EMFhbasepattern-7" />
    <pattern
       y="0"
       x="0"
       height="6"
       width="6"
       patternUnits="userSpaceOnUse"
       id="EMFhbasepattern-4" />
    <pattern
       y="0"
       x="0"
       height="6"
       width="6"
       patternUnits="userSpaceOnUse"
       id="EMFhbasepattern-6" />
    <pattern
       y="0"
       x="0"
       height="6"
       width="6"
       patternUnits="userSpaceOnUse"
       id="EMFhbasepattern-1" />
    <pattern
       y="0"
       x="0"
       height="6"
       width="6"
       patternUnits="userSpaceOnUse"
       id="EMFhbasepattern-74" />
    <pattern
       y="0"
       x="0"
       height="6"
       width="6"
       patternUnits="userSpaceOnUse"
       id="EMFhbasepattern-07" />
    <pattern
       y="0"
       x="0"
       height="6"
       width="6"
       patternUnits="userSpaceOnUse"
       id="EMFhbasepattern-24" />
    <pattern
       y="0"
       x="0"
       height="6"
       width="6"
       patternUnits="userSpaceOnUse"
       id="EMFhbasepattern-3" />
  </defs>
  <sodipodi:namedview
     id="base"
     pagecolor="#ffffff"
     bordercolor="#666666"
     borderopacity="1.0"
     inkscape:pageopacity="0.0"
     inkscape:pageshadow="2"
     inkscape:zoom="1.979899"
     inkscape:cx="-98.255752"
     inkscape:cy="69.652096"
     inkscape:document-units="px"
     inkscape:current-layer="layer1"
     showgrid="false"
     inkscape:window-width="1680"
     inkscape:window-height="987"
     inkscape:window-x="-8"
     inkscape:window-y="-8"
     inkscape:window-maximized="1"
     units="px"
     fit-margin-top="0"
     fit-margin-left="0"
     fit-margin-right="0"
     fit-margin-bottom="0" />
  <metadata
     id="metadata3850">
    <rdf:RDF>
      <cc:Work
         rdf:about="">
        <dc:format>image/svg+xml</dc:format>
        <dc:type
           rdf:resource="http://purl.org/dc/dcmitype/StillImage" />
        <dc:title></dc:title>
      </cc:Work>
    </rdf:RDF>
  </metadata>
  <g
     inkscape:label="Layer 1"
     inkscape:groupmode="layer"
     id="layer1"
     transform="translate(-454.46801,-492.7465)">
    <path
       inkscape:connector-curvature="0"
       id="path3524"
       d="m 471.33773,516.4318 0.67731,1.16414 1.22766,0 2.39181,1.16417 0.1905,-2.64581 0.61383,-1.0795 -0.67733,-1.143 4.76247,-0.4445 -1.98964,-4.36028 1.33348,0 0.61383,-1.03716 2.20133,-1.50284 -2.20133,-1.5028 -0.61383,-1.05833 -1.33348,0 1.98964,-4.33914 -4.76247,-0.4445 0.67733,-1.16414 -0.61383,-1.05833 -0.1905,-2.66699 -2.39181,1.16415 -1.22766,0.0212 -0.67731,1.143 -2.75166,-3.89464 -2.77281,3.89464 -0.65617,-1.143 -1.22764,-0.0212 -2.413,-1.16415 -0.1905,2.66699 -0.59266,1.05833 0.65616,1.16414 -4.76246,0.4445 1.98966,4.33914 -1.33349,0 -0.61383,1.05833 -2.20132,1.5028 2.20132,1.50284 0.61383,1.03716 1.33349,0 -1.98966,4.36028 4.76246,0.4445 -0.65616,1.143 0.59266,1.0795 0.1905,2.64581 2.413,-1.16417 1.22764,0 0.65617,-1.16414 2.77281,3.89464 z"
       style="fill:#0d0f0f;fill-opacity:1;fill-rule:nonzero;stroke:none" />
    <path
       inkscape:connector-curvature="0"
       id="path3526"
       d="m 472.84054,516.19897 0.99483,0.5715 0.99483,-0.5715 0,-1.143 -0.99483,-0.55033 -3.80997,-7.13312 8.06444,-0.254 0.99484,0.5715 0.9948,-0.5715 0,-1.143 -0.9948,-0.57147 -0.99484,0.57147 -8.06444,-0.25397 3.80997,-7.13314 0.99483,-0.57147 0,-1.143 -0.99483,-0.5715 -0.99483,0.5715 0,1.143 -4.25447,6.85795 -4.27564,-6.85795 0,-1.143 -0.97364,-0.5715 -0.99484,0.5715 0,1.143 0.99484,0.57147 3.80997,7.13314 -8.08561,0.25397 -0.99483,-0.57147 -0.97366,0.57147 0,1.143 0.97366,0.5715 0.99483,-0.5715 8.08561,0.254 -3.80997,7.13312 -0.99484,0.55033 0,1.143 0.99484,0.5715 0.97364,-0.5715 0,-1.143 4.27564,-6.85795 4.25447,6.85795 z"
       style="fill:#ffffff;fill-opacity:1;fill-rule:nonzero;stroke:none" />
    <path
       inkscape:connector-curvature="0"
       id="path3528"
       d="m 468.58607,495.28644 1.98966,3.47131 -1.98966,3.45014 -1.98964,-3.45014 z"
       style="fill:#ffffff;fill-opacity:1;fill-rule:nonzero;stroke:none" />
    <path
       inkscape:connector-curvature="0"
       id="path3530"
       d="m 458.82832,500.91675 4.00047,0 2.0108,3.4713 -4.00047,-0.0212 z"
       style="fill:#ffffff;fill-opacity:1;fill-rule:nonzero;stroke:none" />
    <path
       inkscape:connector-curvature="0"
       id="path3532"
       d="m 458.82832,512.17733 2.0108,-3.47131 4.00047,0 -2.0108,3.45014 z"
       style="fill:#ffffff;fill-opacity:1;fill-rule:nonzero;stroke:none" />
    <path
       inkscape:connector-curvature="0"
       id="path3534"
       d="m 468.58607,517.80761 -1.98964,-3.47131 1.98964,-3.4713 1.98966,3.4713 z"
       style="fill:#ffffff;fill-opacity:1;fill-rule:nonzero;stroke:none" />
    <path
       inkscape:connector-curvature="0"
       id="path3536"
       d="m 478.32268,512.17733 -4.00048,-0.0212 -1.98966,-3.45014 3.9793,0 z"
       style="fill:#ffffff;fill-opacity:1;fill-rule:nonzero;stroke:none" />
    <path
       inkscape:connector-curvature="0"
       id="path3538"
       d="m 478.32268,500.91675 -2.01084,3.45014 -3.9793,0.0212 1.98966,-3.47131 z"
       style="fill:#ffffff;fill-opacity:1;fill-rule:nonzero;stroke:none" />
  </g>
</svg>
