<?xml version="1.0" encoding="UTF-8" standalone="no"?>
<!-- Created with Inkscape (http://www.inkscape.org/) -->

<svg
   xmlns:dc="http://purl.org/dc/elements/1.1/"
   xmlns:cc="http://creativecommons.org/ns#"
   xmlns:rdf="http://www.w3.org/1999/02/22-rdf-syntax-ns#"
   xmlns:svg="http://www.w3.org/2000/svg"
   xmlns="http://www.w3.org/2000/svg"
   xmlns:sodipodi="http://sodipodi.sourceforge.net/DTD/sodipodi-0.dtd"
   xmlns:inkscape="http://www.inkscape.org/namespaces/inkscape"
   width="7.5984945mm"
   height="7.6403117mm"
   viewBox="0 0 26.9238 27.071971"
   id="svg3845"
   version="1.1"
   inkscape:version="0.91 r13725"
   sodipodi:docname="w.svg">
  <defs
     id="defs3847">
    <pattern
       y="0"
       x="0"
       height="6"
       width="6"
       patternUnits="userSpaceOnUse"
       id="EMFhbasepattern" />
    <pattern
       y="0"
       x="0"
       height="6"
       width="6"
       patternUnits="userSpaceOnUse"
       id="EMFhbasepattern-0" />
  </defs>
  <sodipodi:namedview
     id="base"
     pagecolor="#ffffff"
     bordercolor="#666666"
     borderopacity="1.0"
     inkscape:pageopacity="0.0"
     inkscape:pageshadow="2"
     inkscape:zoom="1.4"
     inkscape:cx="61.163079"
     inkscape:cy="-106.01788"
     inkscape:document-units="px"
     inkscape:current-layer="layer1"
     showgrid="false"
     inkscape:window-width="1680"
     inkscape:window-height="987"
     inkscape:window-x="-8"
     inkscape:window-y="-8"
     inkscape:window-maximized="1"
     units="px"
     fit-margin-top="0"
     fit-margin-left="0"
     fit-margin-right="0"
     fit-margin-bottom="0" />
  <metadata
     id="metadata3850">
    <rdf:RDF>
      <cc:Work
         rdf:about="">
        <dc:format>image/svg+xml</dc:format>
        <dc:type
           rdf:resource="http://purl.org/dc/dcmitype/StillImage" />
        <dc:title></dc:title>
      </cc:Work>
    </rdf:RDF>
  </metadata>
  <g
     inkscape:label="Layer 1"
     inkscape:groupmode="layer"
     id="layer1"
     transform="translate(-327.63746,-386.00092)">
    <path
       inkscape:connector-curvature="0"
       id="path3378"
       d="m 354.56126,401.53714 c -1.86267,-1.05833 -3.04797,-1.5875 -3.55597,-1.5875 -0.381,0 -0.67734,0.29634 -0.91017,0.889 -0.21167,0.5715 -0.635,0.86784 -1.27,0.86784 -0.25397,0 -0.8043,-0.10584 -1.60864,-0.29634 -0.4445,0.6985 -0.67733,1.143 -0.67733,1.3335 0,0.254 0.1905,0.57147 0.59267,0.91014 0.381,0.35983 0.71966,0.55033 0.97366,0.55033 0.16934,0 0.40217,-0.0423 0.69847,-0.10583 0.29634,-0.0847 0.48684,-0.10583 0.5715,-0.10583 0.29634,0 0.4445,0.52916 0.4445,1.5875 0,1.03716 -0.23283,2.60347 -0.71966,4.69897 -0.61381,-2.413 -1.26997,-3.61947 -1.94731,-3.61947 -0.10583,0 -0.29633,0.0635 -0.59266,0.21166 -0.29634,0.14814 -0.508,0.21164 -0.65617,0.21164 -0.6985,0 -1.31231,-0.63497 -1.86264,-1.8838 -1.0795,0.16933 -1.62983,0.71966 -1.62983,1.67216 0,0.46564 0.21166,0.84664 0.65616,1.14298 0.4445,0.27516 0.65617,0.48683 0.65617,0.59266 0,0.65617 -0.93133,1.62984 -2.81514,2.96331 -0.99483,0.71966 -1.67216,1.2065 -2.05316,1.50283 0.33866,-0.4445 0.65616,-0.99483 0.99483,-1.67217 0.381,-0.78313 0.5715,-1.39697 0.5715,-1.8203 0,-0.254 -0.27517,-0.5715 -0.8255,-0.99483 -0.55033,-0.4445 -0.80433,-0.889 -0.80433,-1.35467 0,-0.40214 0.127,-0.91014 0.42333,-1.50281 -0.3175,-0.35983 -0.67733,-0.52916 -1.10067,-0.52916 -0.95247,0 -1.4393,0.29633 -1.4393,0.91016 l 0,0.97364 c 0.0212,0.78317 -0.5715,1.16417 -1.778,1.16417 -0.93134,0 -2.47647,-0.21167 -4.65663,-0.635 2.45532,-0.61383 3.70413,-1.33347 3.70413,-2.13781 0,0.10584 -0.0423,-0.1905 -0.14817,-0.84666 -0.0847,-0.74084 0.42333,-1.397 1.56633,-1.98964 -0.21166,-1.10067 -0.78316,-1.651 -1.7145,-1.651 -0.127,0 -0.40213,0.254 -0.78313,0.762 -0.381,0.48683 -0.71967,0.74083 -1.05834,0.74083 -0.5715,0 -1.31233,-0.61383 -2.20132,-1.86266 -0.44449,-0.61384 -1.10065,-1.52398 -1.96848,-2.73048 0.55033,0.27517 1.10066,0.5715 1.62982,0.84667 0.71966,0.33867 1.29115,0.508 1.71448,0.508 0.33867,0 0.65617,-0.29633 0.97367,-0.86783 0.33867,-0.59267 0.74083,-0.889 1.27,-0.889 0.0847,0 0.5503,0.14816 1.41814,0.4445 0.46566,-0.6985 0.67733,-1.2065 0.67733,-1.54517 0,-0.27517 -0.16933,-0.61383 -0.508,-0.97364 -0.33867,-0.35983 -0.65617,-0.55033 -0.9525,-0.55033 -0.10583,0 -0.29633,0.0423 -0.5503,0.10583 -0.23284,0.0635 -0.42334,0.10584 -0.55034,0.10584 -0.42333,0 -0.635,-0.52917 -0.635,-1.60867 0,-0.27517 0.27517,-1.90497 0.8255,-4.8683 -0.0212,0.35983 0.127,1.01599 0.46564,1.98966 0.40217,1.18531 0.86783,1.77797 1.41817,1.77797 0.0847,0 0.27516,-0.0635 0.5715,-0.21166 0.27516,-0.14817 0.508,-0.21167 0.67733,-0.21167 0.55033,0 0.99483,0.3175 1.35464,0.93133 l 0.52917,0.9525 c 0.48683,0 0.91016,-0.16933 1.24883,-0.52916 0.3175,-0.35984 0.48683,-0.78317 0.48683,-1.29117 0,-0.50797 -0.21166,-0.91014 -0.65616,-1.18531 -0.4445,-0.27516 -0.65617,-0.48683 -0.65617,-0.61383 0,-0.508 0.78317,-1.35467 2.3495,-2.53998 1.26997,-0.9525 2.0743,-1.50283 2.4553,-1.67216 -1.016,1.37582 -1.524,2.39182 -1.524,3.02681 0,0.33866 0.1905,0.6985 0.59267,1.05833 0.508,0.46567 0.78317,0.78317 0.86783,0.97367 0.23284,0.55033 0.21167,1.29114 -0.0847,2.24364 0.65617,0.4445 1.143,0.67733 1.4605,0.67733 0.69848,0 1.03714,-0.35983 1.03714,-1.0795 0,-0.0635 -0.0212,-0.29633 -0.0847,-0.67733 -0.0635,-0.381 -0.0847,-0.59264 -0.0635,-0.63498 0.10584,-0.33866 0.762,-0.48683 1.9685,-0.48683 0.762,0 2.32831,0.21167 4.74131,0.63497 -0.52917,0.14817 -1.31233,0.35984 -2.3495,0.635 -0.9525,0.29634 -1.43931,0.61384 -1.43931,0.97367 0,0.14817 0.0635,0.4445 0.1905,0.84667 0.10581,0.40216 0.16931,0.6985 0.16931,0.889 0,0.33866 -0.21164,0.63497 -0.63497,0.9313 l -1.2065,0.84667 c 0.27516,0.52916 0.46566,0.8255 0.5715,0.93133 0.23283,0.27517 0.55033,0.42333 0.9525,0.42333 0.2963,0 0.5503,-0.254 0.78314,-0.74083 0.23283,-0.508 0.61383,-0.762 1.143,-0.762 0.635,0 1.35466,0.59267 2.18013,1.778 0.4445,0.67733 1.143,1.69331 2.0955,3.04797 z m -7.91628,-2.07433 c 0,-1.52397 -0.55033,-2.83631 -1.67216,-3.95811 -1.10064,-1.10067 -2.43414,-1.67217 -3.93698,-1.67217 -1.54513,0 -2.87863,0.55034 -4.00044,1.651 -1.12183,1.12181 -1.69333,2.43414 -1.7145,3.97928 -0.0212,1.524 0.55033,2.83633 1.69333,3.93697 1.16414,1.10067 2.49764,1.651 4.02161,1.651 1.60867,0 2.94217,-0.52917 4.02164,-1.5875 1.0795,-1.0583 1.60867,-2.3918 1.5875,-4.00047 z m -0.52916,0 c 0,1.43933 -0.48684,2.64583 -1.46048,3.59833 -0.97366,0.95247 -2.18016,1.41814 -3.6195,1.41814 -1.41813,0 -2.60347,-0.48683 -3.5983,-1.46047 -0.99481,-0.97367 -1.50281,-2.159 -1.50281,-3.556 0,-1.37581 0.508,-2.56114 1.50281,-3.53481 1.016,-0.9948 2.20133,-1.48163 3.5983,-1.48163 1.37584,0 2.56117,0.48683 3.57717,1.48163 0.99481,1.016 1.50281,2.18017 1.50281,3.53481 z"
       style="fill:#0d0f0f;fill-opacity:1;fill-rule:nonzero;stroke:none" />
  </g>
</svg>
