<?xml version="1.0" standalone="no"?>
<!DOCTYPE svg PUBLIC "-//W3C//DTD SVG 1.1//EN" "http://www.w3.org/Graphics/SVG/1.1/DTD/svg11.dtd">
<svg xmlns="http://www.w3.org/2000/svg">
<metadata>Generated by Fontastic.me</metadata>
<defs>
<font id="magic-font" horiz-adv-x="512">
<font-face font-family="magic-font" units-per-em="512" ascent="480" descent="-32"/>
<missing-glyph horiz-adv-x="512" />

<glyph glyph-name="w" unicode="&#57344;" d="M511 217c-36 20-58 30-68 30-7 0-13-5-17-16-4-11-12-17-24-17-5 0-15 2-31 6-8-13-13-22-13-25 0-5 4-11 12-18 7-7 13-10 18-10 3 0 8 1 13 2 6 1 10 2 11 2 6 0 9-10 9-30 0-20-5-50-14-89-12 45-24 68-37 68-2 0-6-1-11-4-6-3-10-4-13-4-13 0-24 12-35 36-20-3-31-14-31-32 0-9 4-16 13-21 8-6 12-10 12-12 0-12-18-31-53-56-19-14-32-23-39-28 6 8 12 18 19 31 7 15 10 27 10 35 0 5-5 11-15 19-11 8-15 17-15 25 0 8 2 18 8 29-6 7-13 10-21 10-18 0-28-6-28-17l0-19c1-15-10-22-33-22-18 0-47 4-89 12 47 12 71 25 71 41 0-2-1 3-3 16-2 14 8 26 30 38-5 20-15 31-33 31-2 0-8-5-15-15-7-9-14-14-20-14-11 0-25 12-42 36-8 11-21 29-37 51 10-5 21-10 31-16 14-6 24-9 32-9 7 0 13 5 19 16 6 11 14 17 24 17 2 0 10-3 27-8 9 13 13 22 13 29 0 5-4 12-10 18-6 7-12 11-18 11-2 0-6-1-10-2-5-1-8-2-11-2-8 0-12 10-12 30 0 6 5 36 16 93-1-7 2-20 9-38 7-23 16-34 26-34 2 0 6 1 11 4 6 3 10 4 13 4 11 0 19-6 26-17l10-19c9 0 17 4 24 11 6 6 9 14 9 24 0 10-4 17-13 22-8 6-12 10-12 12 0 10 15 26 44 48 25 18 40 29 47 32-19-26-29-45-29-57 0-7 4-14 11-20 10-9 15-15 17-19 4-10 4-24-2-42 13-9 22-13 28-13 13 0 20 7 20 20 0 1-1 6-2 13-1 7-2 11-1 12 2 6 14 9 37 9 15 0 44-4 90-12-10-3-25-7-45-12-18-5-27-11-27-18 0-3 1-9 4-16 2-8 3-14 3-17 0-7-4-12-12-18l-23-16c5-10 9-16 11-18 4-5 10-8 18-8 6 0 10 5 15 14 4 10 11 15 21 15 13 0 26-11 42-34 8-13 21-32 40-58z m-151 40c0 29-10 54-31 75-21 21-46 31-75 31-29 0-55-10-76-31-21-21-32-46-32-75-1-29 10-54 32-75 22-21 47-31 76-31 31 0 56 10 76 30 21 20 31 45 30 76z m-10 0c0-28-9-50-27-69-19-18-42-26-69-26-27 0-49 9-68 27-19 19-29 41-29 68 0 26 10 48 29 67 19 19 42 28 68 28 26 0 49-9 68-28 19-20 28-42 28-67z"/>
<glyph glyph-name="u" unicode="&#57345;" d="M370 52c-30-31-67-46-111-46-50 0-89 17-118 51-27 32-41 73-41 123 0 54 24 115 70 184 39 56 83 106 135 148-8-34-12-59-12-73 0-33 11-66 32-98 25-37 45-65 58-83 22-32 32-63 32-93 0-45-15-82-45-113z m-1 172c-8 18-17 30-28 36 1-3 2-8 2-14 0-11-3-27-9-48l-11-32c0-19 9-29 28-29 20 0 30 14 30 40 0 14-4 29-12 47z"/>
<glyph glyph-name="b" unicode="&#57346;" d="M502 266c0-34-12-56-36-68-7-4-29-9-66-15-25-4-37-13-37-28l0-61c0-2 1-10 3-23l2-24c0-8-2-20-5-37-10-2-21-5-34-7-4 15-6 25-6 31 0 2 1 6 2 11 1 5 2 9 2 11 0 4-3 14-9 30l-12 0c-2-3-2-6-2-10 2-8 3-16 3-22-9-6-21-14-36-24-3 1-5 2-4 2l0 53c-1 3-3 4-7 3l-9 0-9-71c-7 0-16 0-26 0-4 17-10 41-19 74l-6 0c-5-17-8-27-9-29 0-2 1-5 2-11 1-6 2-10 2-12 0-1-1-5-2-11l-2-18c-1-1-2-2-4-2-15 0-25 4-30 11-5 8-7 19-6 32l6 91c0 1 1 3 2 6 1 2 1 4 1 5 0 4-4 12-13 24-1 1-9 3-23 6-9 2-26 5-51 10-35 7-52 35-52 84 0 74 30 135 91 184 2-14 6-32 13-55 4-1 14-3 29-7 3-1 18-6 46-16-14 8-32 22-55 41-9 10-13 27-13 51 0 6 10 12 29 20 17 7 30 11 38 12 28 3 48 5 63 5 63 0 114-16 153-48-13-15-35-31-65-47 12-1 29 4 53 14 23 10 33 15 29 15 4 0 12-8 24-24 9-12 17-23 22-32 16-29 27-60 33-93 0-12 0-20 0-25l0-6z m-289-14c0 22-9 42-28 62-19 19-39 29-61 29-19 0-36-8-51-25-14-16-22-34-22-54 0-17 9-28 25-33 11-3 26-5 45-5l41 0c34-1 51 8 51 26z m82-94l0 24c-3 6-7 13-10 20-3 10-9 24-17 43l-8-89c0-7-2-10-5-10-2 0-3 0-4 1-4 53-6 77-6 70l0 26c-1 2-2 2-3 2-17-17-26-46-26-85 0-22 2-35 6-40 4 1 9 3 14 5 2 1 7 2 17 2 10 0 21-3 35-9 5 0 7 13 7 40z m171 106c0 20-7 38-23 54-15 16-32 24-52 24-21 0-41-10-59-29-18-19-28-40-28-61 0-18 9-26 26-26l87 0c33 0 49 13 49 38z"/>
<glyph glyph-name="r" unicode="&#57347;" d="M477 152c-22-54-67-81-134-81-12 0-25-1-39-4-22-5-33-12-33-20 0-2 2-5 5-8 4-4 7-5 10-5-13 0-4-1 26-2 30 0 49 0 57 0-45-27-119-39-223-37-35 1-64 16-89 46-23 28-36 59-36 94 0 37 13 68 37 94 25 26 56 39 93 39 8 0 19-2 32-6 14-3 23-5 28-5 19 0 42 8 70 23 28 16 42 23 40 23-5-53-23-89-54-108-22-12-33-25-33-37 0-8 5-14 14-19 7-3 15-5 24-5 13 0 26 8 39 24 13 17 18 32 17 45-1 15-1 34 3 55 1 7 5 14 11 23 6 9 12 14 18 17 0-5-2-13-6-24-3-10-5-18-5-23 0-12 3-20 10-26 9 3 17 15 24 34 6 15 10 29 11 43-22 1-42 11-62 29-19 18-29 38-29 60 0 4 0 7 1 11 3-5 8-12 14-22 9-12 15-19 20-19 6 0 9 7 9 19 0 16-4 31-13 44-10 17-22 24-38 24-7 0-17-3-32-11-14-8-27-12-39-12-3 0-19 5-47 14 49 8 74 16 74 22 0 18-34 29-102 36-7 0-19 1-37 3 2 2 17 5 44 8 23 3 39 4 48 4 122 0 199-59 232-177 5 5 8 12 8 23 0 14-4 32-12 53-3 8-8 21-15 37 42-53 63-104 63-151 0-26-6-48-18-69-7-14-21-32-42-53-21-22-36-38-43-50 28 8 46 14 55 18 19 8 37 21 53 38 0-6-3-16-9-29z m-334 301c0-9-5-15-15-18l-20-3c-7-4-18-18-32-42-1 8-3 19-6 32-5 0-13-4-23-12-5-4-13-9-23-16 4 18 14 37 31 56 18 21 36 31 53 31 24 0 35-9 35-28z m133-71c0-8-4-15-14-21-9-6-19-9-28-9-12 0-23 6-32 20-12 17-24 28-37 33 3 3 6 4 9 4 5 0 13-3 24-10 11-8 18-11 21-11 3 0 7 3 13 11 6 7 12 10 19 10 17 0 25-9 25-27z"/>
<glyph glyph-name="g" unicode="&#57348;" d="M505 224c0-10-4-18-12-26-7-8-16-12-25-12-15 0-27 8-34 22l-34 1c-7 0-22-3-43-9-22-6-35-11-39-15-5-6-9-19-13-41-2-17-4-30-4-38 0-13 2-22 6-28 4-6 13-11 25-16 13-3 21-6 24-6 2 0 5 0 9 0l9 0c6 0 13 0 20-3 9-2 13-6 12-11-7 1-19 0-36-4l21-11c0-5-9-8-25-8-4 0-10 1-17 3-8 2-13 3-16 3l-9 0c0-5-2-12-4-22-8 1-18 5-29 14-11 9-18 14-21 14-3 0-7-5-12-14-6-9-8-15-8-18-6 3-12 9-16 18-2 7-4 13-6 19-5 0-14-10-27-30l-4 0c-1 1-5 11-11 30-15 5-29 7-42 7-6 0-16-1-29-4l-20 1c3 3 12 9 26 17 16 10 29 15 37 15 2 0 3-1 6-1 2-1 4-1 5-1 4 0 10 2 17 5 7 4 12 7 13 10 1 3 2 11 2 23 0 27-8 48-22 61-13 12-33 21-62 26-8-27-29-41-65-41-12 0-23 7-35 21-11 14-17 27-17 38 0 18 7 32 23 44-13 13-19 25-19 38 0 12 4 23 12 32 7 9 17 15 29 16-1 16 4 26 15 32-5 5-8 14-8 28 0 16 5 29 16 40 10 10 23 16 40 16 17 0 31-6 42-19 14 48 44 72 91 72 23 0 45-10 63-29 7-7 10-11 10-11-6 0-3 1 9 3 11 2 20 3 25 3 19 0 35-7 50-21 13-12 21-28 26-47 3-1 9-2 16-5 10-5 16-14 16-27 0-3-3-7-6-14 31-17 46-41 46-72 0-9-4-21-10-36 13-8 19-18 19-32z m-298-32l0 10c0 10-5 21-16 30-11 9-22 13-33 13-13 0-26-3-37-9 25 2 54-13 86-44z m-13 90c-7 8-13 16-18 25-21-5-31-11-31-18 6 0 14-1 25-3 12-3 19-4 24-4z m44 22l0 32c-11 2-18 3-21 3l0-11z m94 20c-6 3-16 8-32 15l0-62c22 13 33 29 32 47z m40-85l-16 19c-10-6-20-13-29-20-10-7-19-15-26-23 22 11 45 19 71 24z"/>
<glyph glyph-name="p" unicode="&#57349;" d="M395 260c0 27-8 55-26 77-8 9-15 19-24 28-19 19-48 20-71 32-1 12-6 25-3 37 1 4 2 8 0 12-6 14-1 30-2 44-1 8-1 17-8 22-1-16-8-31-12-46-3-12-3-24-8-35 4-12-3-21-10-29-15-8-33-10-47-22-9-8-19-15-30-21-8-10-17-20-20-32-15-18-16-41-24-61 0-30 6-62 25-86 13-11 23-27 37-38 13-8 27-14 40-21 9-2 18-3 27-6 7-36 12-74 26-109 5 14 5 30 8 44 6 22-5 44 1 65 10 9 27 3 38 11 21 12 43 25 59 45 5 12 17 20 17 34 0 19 11 36 7 55z m-157-114c-15 4-29 11-42 20-14 10-19 27-32 36-13 15-11 36-16 54 2 13 5 25 6 38 6 10 16 18 18 30 10 13 24 22 35 34 8 9 21 5 31 5-1-10-1-21 1-31 1-6 4-12 3-19-2-13 3-27 0-41-8-29 0-58 1-87-1-13-2-26-5-39z m116 55c-10-7-18-16-27-25-16-10-31-22-49-27 2 13 3 27-1 39-10 29 2 59 5 89-2 17-1 35-9 52-1 12 5 23 8 34 12-5 23-11 33-19 13-10 31-15 34-32 1-12 14-18 13-30 0-27 3-55-7-81z"/>
<glyph glyph-name="s" unicode="&#57350;" d="M128 34l44 21 22 1 12 20 50-70 50 70 12-20 22-1 44-21 4 48 11 20-13 21 87 8-36 79 24 0 11 19 40 27-40 27-11 19-24 0 36 79-87 8 13 21-11 20-4 48-44-21-22-1-12-20-50 70-50-70-12 20-22 1-44 21-4-48-10-20 12-21-87-8 36-79-24 0-11-19-40-27 40-27 11-19 24 0-36-79 87-8-12-21 10-20z m223 36l18 11 0 20-18 11-69 129 147 5 18-11 18 11 0 20-18 11-18-11-147 5 69 129 18 11 0 20-18 11-18-11 0-20-77-125-77 125 0 20-18 11-18-11 0-20 18-11 69-129-147-5-18 11-18-11 0-20 18-11 18 11 147-5-69-129-18-11 0-20 18-11 18 11 0 20 77 125 77-125 0-20z m-59 327l-36-63-36 63 36 63z m-140-39l36-63-72 0-37 63z m-36-141l72 0-36-63-73 0z m104-102l36 63 36-63-36-63z m140 39l-36 63 72 0 37-63z m36 141l-72 0 36 63 73 0z"/>
<glyph glyph-name="chaos" unicode="&#57351;" d="M325 469c-157-7 18-140-70-211 0 0 0 0 0 0 0 0 0 0-1 0 0 0 0 0-1 0-62-25-131 75-133-31 33 50 48 2 102 5-26-35-14-93-57-102-80-17-138 79-133 140 11 135 116 196 221 190-139 28-256-87-253-206 4-136 76-202 187-211 157 7-18 140 70 211 0 0 0 0 0 0 0 0 1 0 1 0 0 0 0 0 1 0 62 25 131-75 133 31-33-50-48-2-102-5 26 35 14 93 57 102 80 17 138-79 133-140-11-135-116-196-221-190 139-28 256 87 253 206-4 136-76 202-187 211z"/>
<glyph glyph-name="t" unicode="&#57352;" d="M493 258l-274 0 100 71c-37 30-80 44-129 44-25 0-41-5-50-14-9-9-14-26-14-51 0-67 35-139 104-215l-78-81c-92 113-139 213-139 300 0 53 16 95 48 126 32 31 75 47 127 47 64 0 134-24 210-73l59 100z"/>
<glyph glyph-name="artifact" unicode="&#57353;" d="M116 3c-9 3-12 7-10 14 1 6 15 11 36 12 10 1 23 3 27 5 22 8 44 24 50 38 1 3 4 26 6 54 4 44 4 48 1 51-1 2-14 9-29 17-23 11-28 15-40 27-13 12-15 15-23 33-10 22-26 71-31 91-3 13-4 15-14 25-9 8-12 13-13 18-2 12 0 19 10 28l10 9-2 37c-1 35-1 37 3 41 2 3 7 6 10 7 10 3 288 3 298 0 3-1 8-4 10-7 4-4 4-6 3-38-1-18-2-35-1-37 0-2 4-7 9-12 10-9 12-16 10-28-1-5-4-10-13-18-10-10-11-12-14-25-5-21-22-69-31-91-8-18-10-21-23-33-12-12-17-16-40-27-15-8-28-15-29-17-3-3-3-7 1-51 2-28 5-51 6-55 5-12 28-29 50-37 4-2 17-4 28-5 21-2 34-6 35-12 2-7-1-11-11-14-14-4-265-4-279 0z"/>
<glyph glyph-name="creature" unicode="&#57354;" d="M174 38c-12 11-13 20-6 39 6 17 14 26 40 43 13 9 36 26 51 37 26 20 39 28 118 74 58 33 135 64 135 54 0-5-18-18-44-32-33-17-127-80-154-104-22-19-51-51-82-89-27-34-41-40-58-22z m-112 31c-8 8-9 18-6 35 5 21 4 43-1 54-4 8-9 11-27 20-12 6-23 13-25 15-7 11-1 37 14 60 13 19 60 72 88 99 29 28 48 41 71 48 17 6 27 11 84 40 66 33 133 53 133 39 0-3-13-10-36-19-49-22-58-27-94-56-17-14-45-36-61-48-31-24-55-47-79-80-32-41-35-50-26-66 3-4 5-11 5-16 0-10 5-6 10-3 7 6 20 17 40 37 55 51 127 104 177 130 33 16 120 52 145 59 22 6 35 7 35 2 0-5-6-9-60-37-74-39-105-61-164-118-31-31-88-82-128-116-4-4-21-22-37-41-15-18-31-35-35-38-8-7-17-6-23 0z"/>
<glyph glyph-name="enchantment" unicode="&#57355;" d="M130 57c-17 3-125 28-128 30-4 2 0 5 10 7 8 2 70 17 96 25 11 3 16 10 12 17-2 5-56 52-106 93-14 13-17 18-10 18 2 0 35-13 74-29 38-15 72-28 75-27 10 2 7 15-26 96-32 77-37 93-29 88 2-1 29-35 59-75 56-74 61-79 68-70 2 2 8 48 14 110 12 109 13 117 17 117 4 0 5-6 16-118 12-110 13-115 24-112 3 1 30 35 61 76 31 41 57 74 58 74 5 0 1-13-29-86-17-42-32-80-33-84-3-9 1-17 8-17 2 0 34 12 70 27 66 27 81 32 81 28 0-2-18-18-39-36-85-72-86-74-81-83 3-5 5-6 66-22 57-14 55-13 53-16-4-3-89-23-140-32-12-2-14 1-14 31 0 23-1 30-6 42-8 21-29 44-51 54-30 13-63 12-88 0-40-20-61-56-58-102 2-19 1-21-3-24-7-4-15-1-21 0z"/>
<glyph glyph-name="instant" unicode="&#57356;" d="M221 1c-1 0-1 2 0 4 1 2 25 41 54 87 30 46 55 86 56 88 4 7 2 17-4 20-4 2-15 1-124-16-66-10-122-19-124-19-8 0-15 7-15 15 0 8 8 25 61 119 49 87 48 84 22 89-8 2-12 8-10 17 2 7 51 88 59 96 3 3 10 8 14 9 9 3 209 3 216 0 7-3 10-8 7-15-2-3-50-55-109-116-58-60-106-112-108-114-2-4-2-6 1-8 2-4 5-3 71 10 38 8 72 14 76 14 10 0 14-4 19-21 10-30 13-32 41-30 21 1 26-1 24-9-1-3-16-19-34-37-19-18-58-56-87-85-104-102-103-102-106-98z"/>
<glyph glyph-name="land" unicode="&#57357;" d="M187 57c-70 6-139 24-168 43-30 21-25 41 20 89 41 44 60 80 86 166 17 57 34 93 44 99 17 9 29-4 51-59 23-58 44-93 69-120 7-8 14-13 18-13 6 0 15 11 32 38 14 23 24 30 40 27 14-2 26-16 38-50 7-16 15-37 20-46 9-17 30-49 34-49 4 0 33-30 37-37 13-25-6-46-52-62-56-19-107-26-186-28-32 0-70 0-83 2z"/>
<glyph glyph-name="multiple" unicode="&#57358;" d="M199 51c-42 42-51 51-51 58 0 5 7 13 32 39 31 31 32 34 32 43 0 14-8 21-21 21-9 0-12-2-43-32-26-25-34-32-39-32-7 0-16 9-58 51-39 38-51 52-51 57 0 5 12 19 51 57 42 42 51 51 58 51 5 0 13-7 39-32 31-31 34-32 43-32 14 0 21 8 21 21 0 9-2 12-32 43-25 26-32 34-32 39 0 7 9 16 51 58 38 39 52 51 57 51 5 0 19-12 57-51 42-42 51-51 51-58 0-5-7-13-32-39-31-31-32-34-32-43 0-14 8-21 21-21 9 0 12 2 43 32 26 25 34 32 39 32 7 0 16-9 58-51 39-38 51-52 51-57 0-5-12-19-51-57-42-42-51-51-58-51-5 0-13 7-39 32-31 31-34 32-43 32-14 0-21-8-21-21 0-9 2-12 32-43 25-26 32-34 32-39 0-7-9-16-51-58-38-39-52-51-57-51-5 0-19 12-57 51z m57 182l88 0 30-29 29-30 41 41 41 41-41 41-41 41-29-30-30-29-176 0-30 29-29 30-41-41-41-41 41-41 41-41 29 30 30 29z"/>
<glyph glyph-name="planeswalker" unicode="&#57359;" d="M275 36c-40 8-67 22-95 50l-21 20 0-13c0-13 3-29 7-43 2-7-4-5-16 7-37 33-59 86-62 146-1 28-1 31 3 31 2 0 6-3 10-8 8-12 38-36 59-46 53-22 113-27 163-13 26 8 53 22 76 40 9 8 18 14 19 14 4 0 1-8-9-23-12-19-27-34-44-46-16-10-53-23-74-26l-16-2 12-9c17-13 36-17 65-16 45 3 82 20 115 52 13 14 39 47 41 55 1 2 3 2 4 1 2-2-10-38-22-62-28-55-70-92-121-106-21-6-71-7-94-3z m-64 215c0 65 87 64 87 0 0-58-87-59-87 0z m198 40c-91 74-214 77-299 11-14-11-17-14-17-10 0 8 19 36 35 51 21 20 61 38 93 42 12 2 13 3 8 7-29 26-91 20-120 10-34-12-67-40-91-77-7-11-14-21-14-22-1-2-2-2-3-1-3 2 3 23 14 50 22 50 55 90 97 108 47 19 103 25 148 9 33-11 57-27 81-53l12-12c1 21-1 41-6 62 2 1 21-16 33-31 17-20 27-40 35-68 10-31 16-90 11-90-1 0-8 7-17 14z"/>
<glyph glyph-name="sorcery" unicode="&#57360;" d="M256 2c-4 2-6 4-6 8 0 7 5 10 22 14 7 2 14 5 16 6 4 4 3 11-4 17-15 13-46 14-78 3-25-8-35-9-54-5-23 4-45 17-63 34-18 17-26 32-32 53-9 37-1 74 22 95 15 15 42 23 49 15 2-3 1-4-7-9-26-16-28-52-5-77 20-21 45-29 91-29 52 0 73-4 93-20 11-8 22-24 25-33 4-12 5-14 10-12 7 4 12 18 12 31 0 29-20 58-50 73-11 5-18 7-66 14-16 2-23 5-33 14-8 7-13 16-13 22 0 6 2 6 15 3 11-3 14-3 19-1 9 4 13 13 14 28 0 28-24 48-77 63-30 8-56 27-67 50-12 24-15 56-8 81 12 47 55 75 108 72 24-2 43-10 40-17 0-1-10-2-21-2-13 0-23-2-29-4-30-11-42-34-34-63 5-17 20-30 52-47 33-17 34-18 61-44 26-24 35-30 49-30 33 0 44 40 19 69-7 8-13 11-41 22-18 6-22 9-23 12-1 9 14 11 40 6 31-7 64-26 93-55 27-27 44-57 55-96 23-91-1-182-62-231-15-11-40-23-59-28-21-5-64-6-73-2z"/>
<glyph glyph-name="tombstone" unicode="&#57361;" d="M395 436c-21 36-52 59-89 66-1 0-56 9-56 9-5 1-11 1-17 1-45 0-83-20-109-59-24-34-37-81-37-135l0-236c0-4 1-8 4-11l49-64c3-4 9-7 15-7l251 0c11 0 19 8 19 19l0 294c0 48-10 90-30 123z m11-425l-251 0c-3 0-5 1-7 3l-48 64c-1 1-2 3-2 4l0 236c0 110 54 183 135 183 6 0 11 0 16-1l54-8c68-13 111-83 111-179l0-294c0-5-3-8-8-8z m-177 474c-69-2-115-69-115-167l0-233 33-43 0 274c0 83 31 145 82 169z m-67-459l236 0 0 290c0 99-47 165-118 165-70 0-118-66-118-165l0-290z m186 337l-135 0c-5 0-8 4-8 8 0 4 3 8 8 8l135 0c4 0 8-4 8-8 0-4-4-8-8-8z m-28-59l-79 0c-4 0-8 4-8 8 0 4 4 8 8 8l79 0c4 0 7-4 7-8 0-4-3-8-7-8z m28-85l-135 0c-5 0-8 3-8 7 0 5 3 8 8 8l135 0c4 0 8-3 8-8 0-4-4-7-8-7z m-24-69l-87 0c-4 0-8 4-8 8 0 4 4 8 8 8l87 0c4 0 7-4 7-8 0-4-3-8-7-8z"/>
<glyph glyph-name="infinite" unicode="&#57362;" d="M261 283c43 60 91 90 144 90 36 0 64-11 85-32 21-22 32-50 32-86 0-35-11-64-32-87-21-22-49-33-84-33-52 0-101 30-145 91-47-61-94-91-144-91-36 0-64 11-85 33-22 22-32 51-32 87 0 35 10 64 32 85 21 22 49 33 85 33 51 0 98-30 144-90z m-23-29c-41 55-82 83-123 83-25 0-44-7-59-23-14-15-22-35-22-59 0-25 8-45 22-61 15-16 34-24 59-24 39 0 80 28 123 84z m44 0c43-56 84-84 125-84 24 0 43 8 57 23 15 16 22 35 22 60 0 26-7 46-22 61-14 16-34 23-59 23-25 0-48-8-70-26-14-11-31-30-53-57z"/>
<glyph glyph-name="planeswalk" unicode="&#57363;" d="M118 254l1 10-1 0 1 0 10 135c0 0 5-93 21-120 7 3 14 5 21 7 17 45 23 177 23 177 0 0 4-121 19-167 8 1 16 2 25 2 15 58 19 214 19 214 0 0 5-157 20-214 9-1 17-1 24-3 15 47 21 168 21 168 0 0 5-133 20-177 7-2 14-5 20-7 17 26 23 120 23 120l9-135 0 0 0 0 0-10c0 0-137-45-137-254 0 208-139 254-139 254"/>
<glyph glyph-name="c" unicode="&#57364;" d="M254 450c13-25 29-50 47-74 8-10 17-20 27-31 10-11 21-22 33-33 12-10 25-21 40-30 14-10 30-18 46-26-24-13-49-29-73-48-10-8-20-17-31-27-11-11-22-22-32-34-11-13-21-26-30-40-10-15-19-30-27-46-12 24-27 48-45 71-16 21-36 42-60 64-24 22-53 42-87 60 24 12 48 28 72 47 21 16 42 36 64 61 22 24 41 53 56 86z m-28-270c12-15 21-29 28-44 10 20 22 38 35 53 14 15 27 27 40 37 14 11 29 21 45 30-21 9-39 21-54 34-14 14-27 27-37 40-11 14-21 29-29 46-9-21-21-39-34-54-13-15-26-27-39-38-14-11-30-20-45-28 21-11 39-24 53-37 15-14 28-27 37-39z"/>
</font>
</defs>
</svg>
